<?xml version="1.0" encoding="utf-8"?>
<svg version="1.1" xmlns:xlink="http://www.w3.org/1999/xlink" width="46px" height="50px" xmlns="http://www.w3.org/2000/svg">
  <g transform="matrix(1 0 0 1 -104 -15 )">
    <path d="M 7.09765625 10.967548076923078  C 7.476996527777779 10.586939102564102  7.666666666666666 10.136217948717945  7.666666666666666 9.615384615384615  C 7.666666666666666 9.094551282051277  7.476996527777779 8.64383012820512  7.09765625 8.263221153846157  C 6.718315972222223 7.882612179487175  6.269097222222223 7.6923076923076925  5.75 7.6923076923076925  C 5.230902777777779 7.6923076923076925  4.781684027777779 7.882612179487175  4.40234375 8.263221153846157  C 4.023003472222222 8.64383012820512  3.833333333333333 9.094551282051277  3.833333333333333 9.615384615384615  C 3.833333333333333 10.136217948717945  4.023003472222222 10.586939102564102  4.40234375 10.967548076923078  C 4.781684027777779 11.348157051282048  5.230902777777779 11.538461538461537  5.75 11.538461538461537  C 6.269097222222223 11.538461538461537  6.718315972222223 11.348157051282048  7.09765625 10.967548076923078  Z M 40.998697916666664 29.612379807692307  C 41.77734375 28.841145833333332  42.166666666666664 27.94471153846154  42.166666666666664 26.923076923076923  C 42.166666666666664 26.221955128205128  41.952039930555564 25.410657051282048  41.522786458333336 24.489182692307693  C 41.093532986111114 23.567708333333332  40.559461805555564 23.096955128205128  39.920572916666664 23.076923076923077  C 40.220052083333336 22.736378205128204  40.469618055555564 22.260616987179482  40.669270833333336 21.649639423076923  C 40.868923611111114 21.038661858974354  40.96875 20.482772435897434  40.96875 19.981971153846157  C 40.96875 18.599759615384613  40.43967013888889 17.407852564102562  39.381510416666664 16.40625  C 39.740885416666664 15.785256410256409  39.920572916666664 15.094150641025639  39.920572916666664 14.332932692307693  C 39.920572916666664 13.591746794871796  39.745876736111114 12.855568910256409  39.396484375 12.124399038461537  C 39.04709201388889 11.393229166666663  38.572916666666664 10.867387820512814  37.973958333333336 10.546875  C 38.07378472222223 9.945913461538463  38.123697916666664 9.385016025641024  38.123697916666664 8.864182692307693  C 38.123697916666664 7.161458333333331  37.634548611111114 5.899439102564102  36.65625 5.078125  C 35.67795138888889 4.2568108974358925  34.3203125 3.8461538461538436  32.583333333333336 3.8461538461538436  L 28.75 3.8461538461538436  C 26.134548611111114 3.8461538461538436  22.720486111111114 4.577323717948717  18.5078125 6.0396634615384635  C 18.407986111111114 6.07972756410256  18.118489583333332 6.184895833333331  17.639322916666668 6.355168269230771  C 17.16015625 6.525440705128199  16.805772569444446 6.650641025641024  16.576171875 6.730769230769229  C 16.346571180555557 6.810897435897434  15.997178819444446 6.926081730769229  15.527994791666668 7.076322115384615  C 15.05881076388889 7.2265625  14.679470486111114 7.3367387820512775  14.389973958333332 7.4068509615384635  C 14.100477430555557 7.476963141025639  13.771050347222225 7.5420673076923075  13.401692708333332 7.6021634615384635  C 13.032335069444446 7.662259615384615  12.717881944444446 7.6923076923076925  12.458333333333332 7.6923076923076925  L 12 7.6923076923076925  L 12 26.923076923076923  L 12.458333333333332 26.923076923076923  C 12.77777777777778 26.923076923076923  13.132161458333336 27.013221153846157  13.521484375 27.193509615384613  C 13.910807291666668 27.373798076923077  14.310112847222225 27.64423076923077  14.719401041666668 28.004807692307693  C 15.12868923611111 28.365384615384613  15.513020833333332 28.720953525641026  15.872395833333332 29.071514423076923  C 16.231770833333332 29.422075320512818  16.63107638888889 29.862780448717945  17.0703125 30.393629807692307  C 17.509548611111114 30.924479166666664  17.853949652777782 31.350160256410252  18.103515625 31.670673076923077  C 18.353081597222225 31.99118589743589  18.667534722222225 32.40184294871795  19.046875 32.902644230769226  C 19.426215277777782 33.403445512820504  19.655815972222225 33.70392628205128  19.735677083333332 33.80408653846154  C 20.833767361111114 35.16626602564102  21.602430555555557 36.077724358974365  22.041666666666668 36.53846153846154  C 22.86024305555556 37.399839743589745  23.45421006944445 38.49659455128205  23.823567708333336 39.82872596153846  C 24.19292534722222 41.16085737179487  24.497395833333336 42.41786858974359  24.736979166666664 43.59975961538461  C 24.9765625 44.781650641025635  25.35590277777778 45.633012820512825  25.875 46.15384615384615  C 27.79166666666667 46.15384615384615  29.06944444444445 45.68309294871795  29.708333333333336 44.74158653846153  C 30.34722222222222 43.80008012820513  30.666666666666664 42.34775641025641  30.666666666666664 40.38461538461539  C 30.666666666666664 39.202724358974365  30.1875 37.595152243589745  29.229166666666664 35.56189903846154  C 28.270833333333336 33.52864583333333  27.791666666666664 31.931089743589737  27.791666666666664 30  L 38.333333333333336 30  C 39.33159722222223 30.76923076923077  40.220052083333336 30.383613782051285  40.998697916666664 29.612379807692307  Z M 44.532552083333336 22.055288461538463  C 45.510850694444436 23.517628205128204  46 25.150240384615387  46 26.953125  C 46 29.016426282051277  45.241319444444436 30.80929487179487  43.723958333333336 32.331730769230774  C 42.20659722222223 33.854166666666664  40.40972222222223 34.61538461538461  38.333333333333336 34.61538461538461  L 33.0625 34.61538461538461  C 34.020833333333336 36.59855769230769  34.5 38.52163461538461  34.5 40.38461538461539  C 34.5 42.74839743589744  34.15060763888889 44.611378205128204  33.451822916666664 45.97355769230769  C 32.75303819444445 47.355769230769226  31.73480902777778 48.37239583333333  30.397135416666664 49.0234375  C 29.05946180555556 49.67447916666667  27.552083333333336 50  25.875 50  C 24.856770833333336 50  23.958333333333336 49.62940705128205  23.1796875 48.88822115384615  C 22.500868055555557 48.22716346153847  21.961805555555557 47.405849358974365  21.5625 46.42427884615385  C 21.163194444444446 45.44270833333333  20.908637152777782 44.53625801282052  20.798828125 43.70492788461539  C 20.689019097222225 42.873597756410255  20.514322916666668 42.02724358974359  20.274739583333332 41.16586538461539  C 20.03515625 40.30448717948718  19.725694444444446 39.66346153846154  19.346354166666668 39.24278846153846  C 18.388020833333332 38.241185897435905  17.319878472222225 36.969150641025635  16.141927083333332 35.42668269230769  C 14.12543402777778 32.80248397435897  12.757812500000002 31.25  12.0390625 30.76923076923077  L 3.833333333333333 30.76923076923077  C 2.775173611111111 30.76923076923077  1.871744791666667 30.393629807692307  1.123046875 29.642427884615387  C 0.37434895833333337 28.89122596153846  0 27.98477564102564  0 26.923076923076923  L 0 7.6923076923076925  C 0 6.63060897435897  0.37434895833333337 5.724158653846157  1.123046875 4.972956730769229  C 1.871744791666667 4.2217548076923075  2.775173611111111 3.8461538461538436  3.833333333333333 3.8461538461538436  L 12.458333333333332 3.8461538461538436  C 12.897569444444446 3.8461538461538436  14.275173611111114 3.445512820512814  16.591145833333332 2.644230769230771  C 19.14670138888889 1.7628205128205066  21.372829861111114 1.1017628205128138  23.26953125 0.6610576923076927  C 25.166232638888893 0.22035256410256054  27.162760416666664 0  29.259114583333336 0  L 32.61328125 0  C 35.40842013888889 0  37.66948784722223 0.7912660256410242  39.396484375 2.3737980769230784  C 41.12348090277778 3.956330128205121  41.97699652777778 6.1197916666666625  41.95703125 8.864182692307693  L 41.95703125 9.014423076923078  C 43.154947916666664 10.556891025641024  43.75390625 12.339743589743584  43.75390625 14.36298076923077  C 43.75390625 14.803685897435892  43.723958333333336 15.234375  43.6640625 15.655048076923078  C 44.422743055555564 16.997195512820507  44.802083333333336 18.4395032051282  44.802083333333336 19.981971153846157  C 44.802083333333336 20.703125  44.712239583333336 21.39423076923077  44.532552083333336 22.055288461538463  Z " fill-rule="nonzero" fill="#000000" stroke="none" transform="matrix(1 0 0 1 104 15 )" />
  </g>
</svg>