<?xml version="1.0" encoding="utf-8"?>
<svg version="1.1" xmlns:xlink="http://www.w3.org/1999/xlink" width="31px" height="37px" xmlns="http://www.w3.org/2000/svg">
  <g transform="matrix(1 0 0 1 -384 -342 )">
    <path d="M 15.5 35.34821428571428  C 15.698717948717954 35.34821428571428  15.798076923076906 35.23809523809524  15.798076923076906 35.01785714285711  C 15.798076923076906 34.79761904761904  15.698717948717954 34.6875  15.5 34.6875  C 14.76722756410254 34.6875  14.136919070512818 34.394996279761926  13.609074519230774 33.80998883928572  C 13.08122996794873 33.22498139880952  12.81730769230768 32.526413690476204  12.81730769230768 31.714285714285722  C 12.81730769230768 31.494047619047592  12.71794871794873 31.383928571428555  12.519230769230774 31.383928571428555  C 12.320512820512818 31.383928571428555  12.221153846153868 31.494047619047592  12.221153846153868 31.714285714285722  C 12.221153846153868 32.71912202380952  12.540965544871824 33.57598586309524  13.18058894230768 34.28487723214289  C 13.820212339743591 34.99376860119048  14.593349358974365 35.34821428571428  15.5 35.34821428571428  Z M 8.346153846153868 11.892857142857167  C 8.346153846153868 14.90911857685245  8.065908420620929 17.654485486003978  7.5054175695551635 20.128957870311694  C 6.705141827737407 23.662040023559882  5.333544304552333 26.642863590598836  3.390625 29  L 27.609375 29  C 24.305689102564088 24.941964285714278  22.653846153846132 19.215773809523796  22.653846153846132 11.892857142857167  C 22.653846153846132 11.190848214285722  22.50480769230768 10.468191964285722  22.206730769230774 9.724888392857167  C 21.908653846153868 8.981584821428555  21.480168269230774 8.272693452380963  20.921274038461547 7.598214285714278  C 20.36237980769232 6.923735119047592  19.607872596153868 6.369698660714278  18.657752403846132 5.936104910714278  C 17.707632211538453 5.502511160714278  16.655048076923094 5.285714285714278  15.5 5.285714285714278  C 14.344951923076906 5.285714285714278  13.292367788461547 5.502511160714278  12.342247596153868 5.936104910714278  C 11.392127403846132 6.369698660714278  10.63762019230768 6.923735119047592  10.078725961538453 7.598214285714278  C 9.519831730769226 8.272693452380963  9.091346153846132 8.981584821428555  8.793269230769226 9.724888392857167  C 8.49519230769232 10.468191964285722  8.346153846153868 11.190848214285722  8.346153846153868 11.892857142857167  Z M 29.3046875 27.254464285714278  C 29.813902243589723 27.887648809523796  30.37900641025641 28.493303571428555  31 29.071428571428555  C 31 29.787202380952408  30.76402243589746 30.40662202380952  30.29206730769232 30.9296875  C 29.820112179487182 31.45275297619048  29.261217948717956 31.714285714285722  28.61538461538464 31.714285714285722  L 20.269230769230774 31.714285714285722  C 20.269230769230774 33.173363095238074  19.803485576923094 34.419084821428555  18.87199519230768 35.45145089285711  C 17.94050480769232 36.48381696428572  16.81650641025641 37  15.5 37  C 14.183493589743591 37  13.05949519230768 36.48381696428572  12.12800480769232 35.45145089285711  C 11.196514423076906 34.419084821428555  10.730769230769226 33.173363095238074  10.730769230769226 31.714285714285722  L 2.3846153846153584 31.714285714285722  C 1.738782051282044 31.714285714285722  1.1798878205128176 31.45275297619048  0.7079326923076792 30.9296875  C 0.23597756410254078 30.40662202380952  0 29.787202380952408  0 29.071428571428555  C 0.6209935897435912 28.493303571428555  1.1860977564102768 27.887648809523796  1.6953125 27.254464285714278  C 2.204527243589723 26.62127976190476  2.732371794871767 25.798828125  3.278846153846132 24.787109375  C 3.825320512820497 23.775390625  4.287960737179503 22.684523809523796  4.666766826923094 21.514508928571445  C 5.045572916666686 20.344494047619033  5.356069711538453 18.926711309523796  5.598257211538453 17.261160714285722  C 5.840444711538453 15.595610119047592  5.961538461538453 13.806175595238074  5.961538461538453 11.892857142857167  C 5.961538461538453 9.80059523809524  6.688100961538453 7.856305803571445  8.141225961538453 6.059988839285722  C 9.594350961538453 4.263671875  11.50080128205127 3.172805059523796  13.860576923076906 2.787388392857167  C 13.761217948717956 2.5258556547619264  13.711538461538453 2.2574404761904816  13.711538461538453 1.982142857142833  C 13.711538461538453 1.431547619047592  13.885416666666686 0.9635416666666856  14.233173076923094 0.578125  C 14.580929487179503 0.19270833333331439  15.003205128205138 0  15.5 0  C 15.996794871794863 0  16.419070512820497 0.19270833333331439  16.766826923076906 0.578125  C 17.114583333333314 0.9635416666666856  17.288461538461547 1.431547619047592  17.288461538461547 1.982142857142833  C 17.288461538461547 2.2574404761904816  17.238782051282044 2.5258556547619264  17.139423076923094 2.787388392857167  C 19.49919871794873 3.172805059523796  21.405649038461547 4.263671875  22.858774038461547 6.059988839285722  C 24.311899038461547 7.856305803571445  25.038461538461547 9.80059523809524  25.038461538461547 11.892857142857167  C 25.038461538461547 13.806175595238074  25.159555288461547 15.595610119047592  25.401742788461547 17.261160714285722  C 25.643930288461547 18.926711309523796  25.954427083333314 20.344494047619033  26.333233173076906 21.514508928571445  C 26.712039262820497 22.684523809523796  27.174679487179503 23.775390625  27.721153846153868 24.787109375  C 28.267628205128233 25.798828125  28.795472756410277 26.62127976190476  29.3046875 27.254464285714278  Z " fill-rule="nonzero" fill="#000000" stroke="none" transform="matrix(1 0 0 1 384 342 )" />
  </g>
</svg>