<?xml version="1.0" encoding="utf-8"?>
<svg version="1.1" xmlns:xlink="http://www.w3.org/1999/xlink" width="24px" height="27px" xmlns="http://www.w3.org/2000/svg">
  <g transform="matrix(1 0 0 1 -438 -347 )">
    <path d="M 23.703125 22.00078124999999  C 23.901041666666686 22.267968750000023  24 22.584375000000023  24 22.94999999999999  L 24 25.649999999999977  C 24 26.015625  23.901041666666686 26.33203125  23.703125 26.599218749999977  C 23.505208333333314 26.86640625000001  23.270833333333314 27  23 27  L 1 27  C 0.7291666666666856 27  0.4947916666666856 26.86640625000001  0.296875 26.599218749999977  C 0.09895833333331439 26.33203125  0 26.015625  0 25.649999999999977  L 0 22.94999999999999  C 0 22.584375000000023  0.09895833333331439 22.267968750000023  0.296875 22.00078124999999  C 0.4947916666666856 21.73359375000001  0.7291666666666856 21.600000000000023  1 21.600000000000023  L 23 21.600000000000023  C 23.270833333333314 21.600000000000023  23.505208333333314 21.73359375000001  23.703125 22.00078124999999  Z M 23.703125 11.200781249999977  C 23.901041666666686 11.467968750000011  24 11.784375000000011  24 12.149999999999977  L 24 14.850000000000023  C 24 15.215624999999989  23.901041666666686 15.532031249999989  23.703125 15.799218750000023  C 23.505208333333314 16.06640625  23.270833333333314 16.19999999999999  23 16.19999999999999  C 23 16.19999999999999  1.2708333333333144 16.19999999999999  1 16.19999999999999  C 0.7291666666666856 16.19999999999999  0.4947916666666856 16.06640625  0.296875 15.799218750000023  C 0.09895833333331439 15.532031249999989  0 15.215624999999989  0 14.850000000000023  L 0 12.149999999999977  C 0 11.784375000000011  0.09895833333331439 11.467968750000011  0.296875 11.200781249999977  C 0.4947916666666856 10.93359375  0.7291666666666856 10.800000000000011  1 11  L 11 11  L 23 10.800000000000011  C 23.270833333333314 10.800000000000011  23.505208333333314 10.93359375  23.703125 11.200781249999977  Z M 23.703125 0.40078125000002274  C 23.901041666666686 0.66796875  24 0.9843750000000001  24 1.3500000000000227  L 24 4.050000000000011  C 24 4.415624999999977  23.901041666666686 4.732031249999977  23.703125 4.999218750000011  C 23.505208333333314 5.266406249999989  23.270833333333314 5.399999999999977  23 5.399999999999977  L 1 5.399999999999977  C 0.7291666666666856 5.399999999999977  0.4947916666666856 5.266406249999989  0.296875 4.999218750000011  C 0.09895833333331439 4.732031249999977  0 4.415624999999977  0 4.050000000000011  L 0 1.3500000000000227  C 0 0.9843750000000001  0.09895833333331439 0.66796875  0.296875 0.40078125000002274  C 0.4947916666666856 0.13359374999998863  0.7291666666666856 0  1 0  L 23 0  C 23.270833333333314 0  23.505208333333314 0.13359374999998863  23.703125 0.40078125000002274  Z " fill-rule="nonzero" fill="#000000" stroke="none" transform="matrix(1 0 0 1 438 347 )" />
  </g>
</svg>