<?xml version="1.0" encoding="utf-8"?>
<svg version="1.1" xmlns:xlink="http://www.w3.org/1999/xlink" width="34px" height="36px" xmlns="http://www.w3.org/2000/svg">
  <g transform="matrix(1 0 0 1 -425 -335 )">
    <path d="M 24.0390625 22.5  C 24.0390625 22.703124999999993  23.975818452380956 22.8828125  23.849330357142858 23.039062499999996  L 21.079241071428573 26.460937500000004  C 20.952752976190478 26.6171875  20.807291666666668 26.695312499999996  20.642857142857142 26.695312499999996  C 20.47842261904762 26.695312499999996  20.33296130952381 26.6171875  20.206473214285715 26.460937500000004  L 17 22.5  L 13.793526785714286 26.460937500000004  C 13.667038690476192 26.6171875  13.521577380952383 26.695312499999996  13.357142857142858 26.695312499999996  C 13.192708333333334 26.695312499999996  13.047247023809526 26.6171875  12.920758928571429 26.460937500000004  L 10.150669642857142 23.039062499999996  C 10.024181547619047 22.8828125  9.9609375 22.703124999999993  9.9609375 22.5  C 9.9609375 22.296875  10.024181547619047 22.1171875  10.150669642857142 21.960937500000004  L 13.357142857142858 18  L 10.150669642857142 14.039062500000002  C 10.024181547619047 13.882812499999996  9.9609375 13.703124999999998  9.9609375 13.5  C 9.9609375 13.296874999999998  10.024181547619047 13.1171875  10.150669642857142 12.960937499999998  L 12.920758928571429 9.539062500000002  C 13.047247023809526 9.382812499999996  13.192708333333334 9.304687499999998  13.357142857142858 9.304687499999998  C 13.521577380952383 9.304687499999998  13.667038690476192 9.382812499999996  13.793526785714286 9.539062500000002  L 17 13.5  L 20.206473214285715 9.539062500000002  C 20.33296130952381 9.382812499999996  20.47842261904762 9.304687499999998  20.642857142857142 9.304687499999998  C 20.807291666666668 9.304687499999998  20.952752976190478 9.382812499999996  21.079241071428573 9.539062500000002  L 23.849330357142858 12.960937499999998  C 23.975818452380956 13.1171875  24.0390625 13.296874999999998  24.0390625 13.5  C 24.0390625 13.703124999999998  23.975818452380956 13.882812499999996  23.849330357142858 14.039062500000002  L 20.642857142857142 18  L 23.849330357142858 21.960937500000004  C 23.975818452380956 22.1171875  24.0390625 22.296875  24.0390625 22.5  Z M 5 6  L 5 30  L 29 30  L 29 6  L 5 6  Z M 33.10825892857143 1.1015625000000013  C 33.70275297619048 1.8359374999999982  34 2.7187500000000013  34 3.7499999999999987  L 34 32.25  C 34 33.28125  33.70275297619048 34.1640625  33.10825892857143 34.8984375  C 32.51376488095239 35.6328125  31.79910714285715 36  30.964285714285715 36  L 3.0357142857142856 36  C 2.200892857142857 36  1.4862351190476193 35.6328125  0.8917410714285714 34.8984375  C 0.29724702380952384 34.1640625  0 33.28125  0 32.25  L 0 3.7499999999999987  C 0 2.7187500000000013  0.29724702380952384 1.8359374999999982  0.8917410714285714 1.1015625000000013  C 1.4862351190476193 0.36718749999999645  2.200892857142857 0  3.0357142857142856 0  L 30.964285714285715 0  C 31.79910714285715 0  32.51376488095239 0.36718749999999645  33.10825892857143 1.1015625000000013  Z " fill-rule="nonzero" fill="#000000" stroke="none" transform="matrix(1 0 0 1 425 335 )" />
  </g>
</svg>