<?xml version="1.0" encoding="utf-8"?>
<svg version="1.1" xmlns:xlink="http://www.w3.org/1999/xlink" width="320px" height="83px" xmlns="http://www.w3.org/2000/svg">
  <defs>
    <mask fill="white" id="clip50">
      <path d="M 276.4356435643565 0.3516949152542449  L 38.81188118811879 0.3516949152542449  C 38.81188118811879 0.3516949152542449  2.451247334113123 18.443910228699167  2.376237623762381 41.5  C 2.300672322116725 64.7268644978265  38.81188118811879 83  38.81188118811879 83  L 276.4356435643565 83  C 276.4356435643565 83  316.9129766497443 64.7243327733594  316.8316831683169 41.5  C 316.7509697889832 18.44139372565275  276.4356435643565 0.3516949152542449  276.4356435643565 0.3516949152542449  Z " fill-rule="evenodd" />
    </mask>
  </defs>
  <g>
    <path d="M 276.4356435643565 0.3516949152542449  L 38.81188118811879 0.3516949152542449  C 38.81188118811879 0.3516949152542449  2.451247334113123 18.443910228699167  2.376237623762381 41.5  C 2.300672322116725 64.7268644978265  38.81188118811879 83  38.81188118811879 83  L 276.4356435643565 83  C 276.4356435643565 83  316.9129766497443 64.7243327733594  316.8316831683169 41.5  C 316.7509697889832 18.44139372565275  276.4356435643565 0.3516949152542449  276.4356435643565 0.3516949152542449  Z " fill-rule="nonzero" fill="#ffffff" stroke="none" />
    <path d="M 276.4356435643565 0.3516949152542449  L 38.81188118811879 0.3516949152542449  C 38.81188118811879 0.3516949152542449  2.451247334113123 18.443910228699167  2.376237623762381 41.5  C 2.300672322116725 64.7268644978265  38.81188118811879 83  38.81188118811879 83  L 276.4356435643565 83  C 276.4356435643565 83  316.9129766497443 64.7243327733594  316.8316831683169 41.5  C 316.7509697889832 18.44139372565275  276.4356435643565 0.3516949152542449  276.4356435643565 0.3516949152542449  Z " stroke-width="2" stroke="#797979" fill="none" mask="url(#clip50)" />
  </g>
</svg>