<?xml version="1.0" encoding="utf-8"?>
<svg version="1.1" xmlns:xlink="http://www.w3.org/1999/xlink" width="23px" height="27px" xmlns="http://www.w3.org/2000/svg">
  <g transform="matrix(1 0 0 1 -203 -438 )">
    <path d="M 6.388888888888889 8.590909090909092  L 6.388888888888889 12.272727272727273  L 16.61111111111111 12.272727272727273  L 16.61111111111111 8.590909090909092  C 16.61111111111111 7.235795454545453  16.111979166666668 6.078835227272727  15.113715277777779 5.120028409090907  C 14.11545138888889 4.161221590909093  12.910879629629632 3.6818181818181817  11.5 3.6818181818181817  C 10.08912037037037 3.6818181818181817  8.88454861111111 4.161221590909093  7.886284722222221 5.120028409090907  C 6.888020833333334 6.078835227272727  6.388888888888889 7.235795454545453  6.388888888888889 8.590909090909092  Z M 22.44097222222222 12.809659090909092  C 22.81365740740741 13.167613636363637  23 13.602272727272725  23 14.113636363636363  L 23 25.15909090909091  C 23 25.670454545454547  22.81365740740741 26.105113636363633  22.44097222222222 26.46306818181818  C 22.06828703703704 26.821022727272727  21.61574074074074 27  21.083333333333332 27  L 1.9166666666666665 27  C 1.3842592592592595 27  0.9317129629629631 26.821022727272727  0.5590277777777778 26.46306818181818  C 0.1863425925925926 26.105113636363633  0 25.670454545454547  0 25.15909090909091  L 0 14.113636363636363  C 0 13.602272727272725  0.1863425925925926 13.167613636363637  0.5590277777777778 12.809659090909092  C 0.9317129629629631 12.451704545454545  1.3842592592592595 12.272727272727273  1.9166666666666665 12.272727272727273  L 2.5555555555555554 12.272727272727273  L 2.5555555555555554 8.590909090909092  C 2.5555555555555554 6.2386363636363615  3.4340277777777777 4.21875  5.190972222222222 2.53125  C 6.947916666666666 0.84375  9.050925925925927 0  11.5 0  C 13.949074074074074 0  16.052083333333332 0.84375  17.80902777777778 2.53125  C 19.56597222222222 4.21875  20.444444444444443 6.2386363636363615  20.444444444444443 8.590909090909092  L 20.444444444444443 12.272727272727273  L 21.083333333333332 12.272727272727273  C 21.61574074074074 12.272727272727273  22.06828703703704 12.451704545454545  22.44097222222222 12.809659090909092  Z " fill-rule="nonzero" fill="#000000" stroke="none" transform="matrix(1 0 0 1 203 438 )" />
  </g>
</svg>