<?xml version="1.0" encoding="utf-8"?>
<svg version="1.1" xmlns:xlink="http://www.w3.org/1999/xlink" width="40px" height="40px" xmlns="http://www.w3.org/2000/svg">
  <defs>
    <filter x="34px" y="111px" width="40px" height="40px" filterUnits="userSpaceOnUse" id="filter56">
      <feOffset dx="1" dy="1" in="SourceAlpha" result="shadowOffsetInner" />
      <feGaussianBlur stdDeviation="2.5" in="shadowOffsetInner" result="shadowGaussian" />
      <feComposite in2="shadowGaussian" operator="atop" in="SourceAlpha" result="shadowComposite" />
      <feColorMatrix type="matrix" values="0 0 0 0 0  0 0 0 0 0  0 0 0 0 0  0 0 0 0.6980392156862745 0  " in="shadowComposite" />
    </filter>
    <g id="widget57">
      <path d="M 53 115  C 61.400000000000006 115  68 121.6  68 130  C 68 138.4  61.400000000000006 145  53 145  C 44.6 145  38 138.4  38 130  C 38 121.6  44.6 115  53 115  Z " fill-rule="nonzero" fill="#2e9c08" stroke="none" />
      <path d="M 53 115.5  C 61.120000000000005 115.5  67.5 121.88  67.5 130  C 67.5 138.12  61.120000000000005 144.5  53 144.5  C 44.879999999999995 144.5  38.5 138.12  38.5 130  C 38.5 121.88  44.879999999999995 115.5  53 115.5  Z " stroke-width="1" stroke="#ffffff" fill="none" />
    </g>
  </defs>
  <g transform="matrix(1 0 0 1 -34 -111 )">
    <use xlink:href="#widget57" filter="url(#filter56)" />
    <use xlink:href="#widget57" />
  </g>
</svg>