<?xml version="1.0" encoding="utf-8"?>
<svg version="1.1" xmlns:xlink="http://www.w3.org/1999/xlink" width="40px" height="40px" xmlns="http://www.w3.org/2000/svg">
  <defs>
    <filter x="34px" y="164px" width="40px" height="40px" filterUnits="userSpaceOnUse" id="filter58">
      <feOffset dx="1" dy="1" in="SourceAlpha" result="shadowOffsetInner" />
      <feGaussianBlur stdDeviation="2.5" in="shadowOffsetInner" result="shadowGaussian" />
      <feComposite in2="shadowGaussian" operator="atop" in="SourceAlpha" result="shadowComposite" />
      <feColorMatrix type="matrix" values="0 0 0 0 0  0 0 0 0 0  0 0 0 0 0  0 0 0 0.6980392156862745 0  " in="shadowComposite" />
    </filter>
    <g id="widget59">
      <path d="M 53 168  C 61.400000000000006 168  68 174.6  68 183  C 68 191.4  61.400000000000006 198  53 198  C 44.6 198  38 191.4  38 183  C 38 174.6  44.6 168  53 168  Z " fill-rule="nonzero" fill="#e80b0b" stroke="none" />
      <path d="M 53 168.5  C 61.120000000000005 168.5  67.5 174.88  67.5 183  C 67.5 191.12  61.120000000000005 197.5  53 197.5  C 44.879999999999995 197.5  38.5 191.12  38.5 183  C 38.5 174.88  44.879999999999995 168.5  53 168.5  Z " stroke-width="1" stroke="#ffffff" fill="none" />
    </g>
  </defs>
  <g transform="matrix(1 0 0 1 -34 -164 )">
    <use xlink:href="#widget59" filter="url(#filter58)" />
    <use xlink:href="#widget59" />
  </g>
</svg>