<?xml version="1.0" encoding="utf-8"?>
<svg version="1.1" xmlns:xlink="http://www.w3.org/1999/xlink" width="46px" height="50px" xmlns="http://www.w3.org/2000/svg">
  <g transform="matrix(1 0 0 1 -138 -30 )">
    <path d="M 7.09765625 41.73677884615385  C 7.476996527777779 41.35616987179487  7.666666666666666 40.905448717948715  7.666666666666666 40.38461538461539  C 7.666666666666666 39.86378205128205  7.476996527777779 39.413060897435905  7.09765625 39.03245192307692  C 6.718315972222223 38.65184294871795  6.269097222222223 38.46153846153846  5.75 38.46153846153846  C 5.230902777777779 38.46153846153846  4.781684027777779 38.65184294871795  4.40234375 39.03245192307692  C 4.023003472222222 39.413060897435905  3.833333333333333 39.86378205128205  3.833333333333333 40.38461538461539  C 3.833333333333333 40.905448717948715  4.023003472222222 41.35616987179487  4.40234375 41.73677884615385  C 4.781684027777779 42.11738782051282  5.230902777777779 42.30769230769231  5.75 42.30769230769231  C 6.269097222222223 42.30769230769231  6.718315972222223 42.11738782051282  7.09765625 41.73677884615385  Z M 41.522786458333336 25.510817307692307  C 41.952039930555564 24.589342948717945  42.166666666666664 23.77804487179487  42.166666666666664 23.076923076923077  C 42.166666666666664 22.05528846153846  41.77734375 21.158854166666664  40.998697916666664 20.387620192307693  C 40.220052083333336 19.616386217948715  39.33159722222223 19.23076923076923  38.333333333333336 20  L 27.791666666666664 20  C 27.791666666666664 18.068910256410252  28.270833333333336 16.471354166666664  29.229166666666664 14.438100961538463  C 30.1875 12.404847756410254  30.666666666666664 10.797275641025639  30.666666666666664 9.615384615384615  C 30.666666666666664 7.652243589743585  30.34722222222222 6.199919871794868  29.708333333333336 5.2584134615384635  C 29.06944444444445 4.316907051282048  27.79166666666667 3.8461538461538436  25.875 3.8461538461538436  C 25.35590277777778 4.366987179487175  24.9765625 5.218349358974356  24.736979166666664 6.400240384615385  C 24.497395833333336 7.58213141025641  24.19292534722222 8.83914262820512  23.823567708333336 10.171274038461537  C 23.45421006944445 11.503405448717945  22.86024305555556 12.600160256410254  22.041666666666668 13.461538461538463  C 21.602430555555557 13.922275641025639  20.833767361111114 14.833733974358971  19.735677083333332 16.195913461538463  C 19.655815972222225 16.296073717948715  19.426215277777782 16.596554487179482  19.046875 17.09735576923077  C 18.667534722222225 17.598157051282048  18.353081597222225 18.008814102564102  18.103515625 18.329326923076923  C 17.853949652777782 18.64983974358974  17.509548611111114 19.075520833333332  17.0703125 19.606370192307693  C 16.63107638888889 20.137219551282048  16.231770833333332 20.577924679487175  15.872395833333332 20.928485576923077  C 15.513020833333332 21.27904647435897  15.12868923611111 21.63461538461538  14.719401041666668 21.995192307692307  C 14.310112847222225 22.35576923076923  13.910807291666668 22.626201923076923  13.521484375 22.806490384615387  C 13.132161458333336 22.986778846153843  12.77777777777778 23.076923076923077  12.458333333333332 23.076923076923077  L 12 23.076923076923077  L 12 42.30769230769231  L 12.458333333333332 42.30769230769231  C 12.717881944444446 42.30769230769231  13.032335069444446 42.33774038461539  13.401692708333332 42.39783653846154  C 13.771050347222225 42.45793269230769  14.100477430555557 42.523036858974365  14.389973958333332 42.59314903846154  C 14.679470486111114 42.663261217948715  15.05881076388889 42.7734375  15.527994791666668 42.92367788461539  C 15.997178819444446 43.073918269230774  16.346571180555557 43.18910256410256  16.576171875 43.269230769230774  C 16.805772569444446 43.34935897435898  17.16015625 43.474559294871796  17.639322916666668 43.644831730769226  C 18.118489583333332 43.81510416666667  18.407986111111114 43.92027243589744  18.5078125 43.96033653846153  C 22.720486111111114 45.422676282051285  26.134548611111114 46.15384615384615  28.75 46.15384615384615  L 32.373697916666664 46.15384615384615  C 36.20703125 46.15384615384615  38.123697916666664 44.48116987179487  38.123697916666664 41.13581730769231  C 38.123697916666664 40.61498397435898  38.07378472222223 40.05408653846154  37.973958333333336 39.453125  C 38.572916666666664 39.13261217948718  39.04709201388889 38.60677083333333  39.396484375 37.87560096153846  C 39.745876736111114 37.144431089743584  39.920572916666664 36.4082532051282  39.920572916666664 35.66706730769231  C 39.920572916666664 34.92588141025641  39.740885416666664 34.234775641025635  39.381510416666664 33.59375  C 40.43967013888889 32.59214743589743  40.96875 31.400240384615387  40.96875 30.018028846153843  C 40.96875 29.517227564102562  40.868923611111114 28.96133814102564  40.669270833333336 28.350360576923077  C 40.469618055555564 27.73938301282051  40.220052083333336 27.263621794871796  39.920572916666664 26.923076923076923  C 40.559461805555564 26.90304487179487  41.093532986111114 26.432291666666664  41.522786458333336 25.510817307692307  Z M 43.723958333333336 17.66826923076923  C 45.241319444444436 19.19070512820512  46 20.983573717948715  46 23.046875  C 46 24.829727564102562  45.510850694444436 26.46233974358974  44.532552083333336 27.94471153846154  C 44.712239583333336 28.60576923076923  44.802083333333336 29.296875  44.802083333333336 30.018028846153843  C 44.802083333333336 31.560496794871796  44.422743055555564 33.00280448717948  43.6640625 34.34495192307692  C 43.723958333333336 34.765625  43.75390625 35.196314102564095  43.75390625 35.637019230769226  C 43.75390625 37.66025641025641  43.154947916666664 39.44310897435897  41.95703125 40.98557692307692  C 41.97699652777778 43.77003205128205  41.12847222222223 45.968549679487175  39.411458333333336 47.58112980769231  C 37.69444444444445 49.19370993589744  35.428385416666664 50  32.61328125 50  L 31.53515625 50  L 28.75 50  C 26.833333333333336 50  24.941623263888893 49.77463942307692  23.074869791666664 49.323918269230774  C 21.208116319444446 48.87319711538461  19.046875 48.21714743589744  16.591145833333332 47.355769230769226  C 14.275173611111114 46.554487179487175  12.897569444444446 46.15384615384615  12.458333333333332 46.15384615384615  L 3.833333333333333 46.15384615384615  C 2.775173611111111 46.15384615384615  1.871744791666667 45.77824519230769  1.123046875 45.027043269230774  C 0.37434895833333337 44.27584134615385  0 43.36939102564102  0 42.30769230769231  L 0 23.076923076923077  C 0 22.015224358974354  0.37434895833333337 21.108774038461537  1.123046875 20.357572115384613  C 1.871744791666667 19.606370192307693  2.775173611111111 19.23076923076923  3.833333333333333 19.23076923076923  L 12.0390625 19.23076923076923  C 12.757812500000002 18.75  14.12543402777778 17.197516025641026  16.141927083333332 14.573317307692307  C 17.299913194444446 13.070913461538463  18.368055555555557 11.788862179487175  19.346354166666668 10.727163461538463  C 19.825520833333332 10.226362179487175  20.17990451388889 9.369991987179482  20.409505208333332 8.158052884615385  C 20.639105902777782 6.9461137820512775  20.94357638888889 5.6790865384615365  21.322916666666668 4.356971153846157  C 21.702256944444446 3.034855769230771  22.321180555555557 1.953125  23.1796875 1.1117788461538436  C 23.958333333333336 0.37059294871795156  24.856770833333336 0  25.875 0  C 27.552083333333336 0  29.05946180555556 0.32552083333333703  30.397135416666664 0.9765625  C 31.73480902777778 1.627604166666663  32.75303819444445 2.644230769230771  33.451822916666664 4.0264423076923075  C 34.15060763888889 5.408653846153843  34.5 7.271634615384615  34.5 9.615384615384615  C 34.5 11.478365384615385  34.020833333333336 13.401442307692307  33.0625 15.384615384615385  L 38.333333333333336 15.384615384615385  C 40.40972222222223 15.384615384615385  42.20659722222223 16.145833333333332  43.723958333333336 17.66826923076923  Z " fill-rule="nonzero" fill="#000000" stroke="none" transform="matrix(1 0 0 1 138 30 )" />
  </g>
</svg>