<?xml version="1.0" encoding="utf-8"?>
<svg version="1.1" xmlns:xlink="http://www.w3.org/1999/xlink" width="43px" height="51px" xmlns="http://www.w3.org/2000/svg">
  <g transform="matrix(1 0 0 1 -164 -651 )">
    <path d="M 32.36197916666666 1.8973214285714448  L 41.09635416666666 10.602678571428555  C 41.618923611111114 11.123511904761926  42.06684027777777 11.83035714285711  42.44010416666666 12.723214285714334  C 42.81336805555554 13.616071428571445  43 14.434523809523851  43 15.178571428571445  L 43 47.321428571428555  C 43 48.06547619047615  42.73871527777777 48.69791666666663  42.21614583333334 49.21875  C 41.693576388888886 49.73958333333337  41.05902777777777 50  40.3125 50  L 2.6875 50  C 1.9409722222222285 50  1.3064236111111143 49.73958333333337  0.7838541666666572 49.21875  C 0.26128472222222854 48.69791666666663  0 48.06547619047615  0 47.321428571428555  L 0 2.678571428571445  C 0 1.9345238095238528  0.26128472222222854 1.3020833333333712  0.7838541666666572 0.78125  C 1.3064236111111143 0.26041666666662877  1.9409722222222285 0  2.6875 0  L 27.770833333333343 0  C 28.517361111111114 0  29.338541666666657 0.18601190476192642  30.234375 0.5580357142856656  C 31.130208333333343 0.9300595238095184  31.83940972222223 1.3764880952380736  32.36197916666666 1.8973214285714448  Z M 29.814453125 4.40848214285711  C 29.590494791666657 4.18526785714289  29.207899305555568 3.9806547619047024  28 3.7946428571428896  L 28 15  L 39.19270833333334 15  C 39.006076388888886 13.746279761904702  38.80078125 13.36495535714289  38.57682291666666 13.141741071428555  L 29.814453125 4.40848214285711  Z M 4 46  L 39 46  L 39 18  L 27.770833333333343 18  C 27.02430555555554 17.85714285714289  26.38975694444446 17.596726190476147  25.8671875 17.07589285714289  C 25.34461805555554 16.55505952380952  25.083333333333343 15.922619047619037  25 15.178571428571445  L 25 4  L 4 4  L 4 46  Z M 20.940104166666657 23.2421875  C 21.966579861111114 26.292782738095184  23.32899305555554 28.506324404761926  25.02734375 29.8828125  C 25.643229166666686 30.366443452380963  26.427083333333343 30.887276785714334  27.37890625 31.4453125  C 28.48003472222223 31.31510416666663  29.57183159722223 31.250000000000004  30.654296875 31.250000000000004  C 33.39778645833334 31.250000000000004  35.04947916666666 31.705729166666625  35.609375 32.6171875  C 35.907986111111114 33.02641369047615  35.92664930555554 33.51004464285711  35.66536458333334 34.06808035714289  C 35.66536458333334 34.08668154761904  35.656032986111114 34.105282738095184  35.63736979166666 34.123883928571445  L 35.58138020833334 34.1796875  L 35.58138020833334 34.207589285714334  C 35.46940104166666 34.91443452380952  34.806857638888886 35.26785714285711  33.59375 35.26785714285711  C 32.69791666666666 35.26785714285711  31.624782986111114 35.081845238095184  30.374348958333343 34.709821428571445  C 29.123914930555568 34.33779761904759  27.910807291666657 33.844866071428555  26.735026041666657 33.231026785714334  C 22.61046006944446 33.67745535714289  18.952473958333343 34.449404761904816  15.761067708333343 35.546875  C 12.905598958333343 40.420386904761926  10.647352430555543 42.85714285714289  8.986328125 42.85714285714289  C 8.706380208333343 42.85714285714289  8.445095486111114 42.79203869047615  8.202473958333343 42.66183035714289  L 7.530598958333344 42.327008928571445  C 7.511935763888885 42.308407738095184  7.455946180555543 42.261904761904816  7.362630208333344 42.1875  C 7.175998263888885 42.001488095238074  7.120008680555543 41.66666666666663  7.194661458333344 41.183035714285666  C 7.362630208333344 40.438988095238074  7.8851996527777715 39.58798363095241  8.762369791666657 38.630022321428555  C 9.639539930555543 37.672061011904816  10.871310763888886 36.774553571428555  12.457682291666657 35.9375  C 12.718967013888886 35.770089285714334  12.93359375 35.82589285714289  13.1015625 36.104910714285666  C 13.138888888888886 36.142113095238074  13.157552083333343 36.17931547619048  13.157552083333343 36.21651785714289  C 14.128038194444457 34.63541666666663  15.12651909722223 32.803199404761926  16.152994791666657 30.719866071428555  C 17.422092013888886 28.19010416666663  18.392578125 25.753348214285666  19.064453125 23.409598214285666  C 18.616536458333343 21.884300595238074  13.27886284722223 51.441592261904816  13.157552083333343 50  C 13.036241319444457 48.5584077380953  18.14995659722223 16.331845238095184  18.392578125 15.401785714285666  C 18.597873263888886 14.657738095238074  18.98980034722223 14.285714285714334  19.568359375 14.285714285714334  L 20.15625 14.285714285714334  L 20.184244791666657 14.285714285714334  C 20.613498263888886 14.285714285714334  20.940104166666657 14.425223214285664  21.1640625 14.704241071428555  C 21.5 15.094866071428555  21.583984375 15.727306547619035  21.416015625 16.6015625  C 21.378689236111114 16.71316964285711  21.34136284722223 16.787574404761926  21.304036458333343 16.824776785714334  C 21.32269965277777 16.88058035714289  21.33203125 16.954985119047592  21.33203125 17.047991071428555  L 21.33203125 17.88504464285711  C 21.294704861111114 20.172991071428555  21.1640625 21.95870535714289  20.940104166666657 23.2421875  Z M 10.2880859375 39.285714285714334  C 9.606879340277771 40.10416666666663  9.144965277777771 40.792410714285666  8.90234375 41.350446428571445  C 9.872829861111114 40.90401785714289  11.151258680555543 39.43452380952385  12.737630208333343 36.941964285714334  C 11.785807291666657 37.686011904761926  10.96929253472223 38.467261904761926  10.2880859375 39.285714285714334  Z M 20.044270833333343 15.625000000000002  L 20.044270833333343 15.680803571428555  C 19.764322916666657 16.462053571428555  19.74565972222223 17.68973214285711  19.98828125 19.363839285714334  C 20.006944444444457 19.233630952380963  20.072265625 18.824404761904702  20.184244791666657 18.136160714285666  C 20.184244791666657 18.08035714285711  20.24956597222223 17.680431547619037  20.380208333333343 16.936383928571445  C 20.39887152777777 16.86197916666663  20.436197916666657 16.787574404761926  20.4921875 16.71316964285711  C 20.473524305555543 16.694568452380963  20.464192708333343 16.675967261904702  20.464192708333343 16.657366071428555  C 20.445529513888886 16.620163690476147  20.436197916666657 16.592261904761926  20.436197916666657 16.573660714285666  C 20.41753472222223 16.16443452380952  20.296223958333343 15.829613095238074  20.072265625 15.569196428571445  C 20.072265625 15.587797619047592  20.06293402777777 15.606398809523853  20.044270833333343 15.625000000000002  Z M 17.832682291666657 31.808035714285662  C 17.272786458333343 32.84970238095241  16.852864583333343 33.621651785714334  16.572916666666657 34.123883928571445  C 19.092447916666657 33.11941964285711  21.74262152777777 32.366071428571445  24.5234375 31.863839285714334  C 24.486111111111114 31.845238095238074  24.36480034722223 31.756882440476147  24.159505208333343 31.59877232142855  C 23.95421006944446 31.440662202380963  23.804904513888886 31.31510416666663  23.711588541666657 31.222098214285666  C 22.293185763888886 29.97581845238096  21.108072916666686 28.338913690476147  20.15625 26.31138392857145  C 19.65234375 27.91108630952385  18.877821180555543 29.743303571428555  17.832682291666657 31.808035714285662  Z M 34.71354166666666 33.761160714285666  C 34.71354166666666 33.74255952380952  34.69487847222223 33.714657738095184  34.65755208333334 33.67745535714289  C 34.20963541666666 33.231026785714334  32.90321180555554 33.0078125  30.73828125 33.0078125  C 32.15668402777777 33.52864583333337  33.31380208333334 33.7890625  34.20963541666666 33.7890625  C 34.470920138888886 33.7890625  34.638888888888886 33.779761904761926  34.71354166666666 33.761160714285666  Z " fill-rule="nonzero" fill="#f91111" stroke="none" transform="matrix(1 0 0 1 164 651 )" />
  </g>
</svg>